<svg width="132" height="263" viewBox="0 0 132 263" fill="none" xmlns="http://www.w3.org/2000/svg">
<g clip-path="url(#clip0_229901_32)">
<path d="M139.497 155.635C153.047 155.635 164.03 145.121 164.03 132.15C164.03 119.18 153.047 108.665 139.497 108.665C125.949 108.665 114.965 119.18 114.965 132.15C114.965 145.121 125.949 155.635 139.497 155.635Z" fill="#33373E"/>
<path fill-rule="evenodd" clip-rule="evenodd" d="M139.502 84.401C172.441 84.401 203.039 88.9255 226.111 96.5291C253.909 105.69 271 119.577 271 132.151C271 145.254 252.887 160.007 223.036 169.475C200.467 176.633 170.769 180.369 139.502 180.369C107.445 180.369 77.0887 176.862 54.2662 169.396C25.3915 159.948 8 145.005 8 132.151C8 119.679 24.3186 105.899 51.7257 96.7524C74.8833 89.0234 106.238 84.401 139.498 84.401H139.502Z" stroke="#33373E" stroke-width="11.2354"/>
<path fill-rule="evenodd" clip-rule="evenodd" d="M96.0838 108.413C112.539 81.0979 131.92 57.983 150.326 42.6487C172.503 24.173 193.608 16.9375 204.985 23.2185C216.844 29.7645 221.144 52.1561 214.798 81.6405C210.007 103.932 198.546 130.426 182.926 156.355C166.911 182.94 148.573 206.362 130.416 221.554C107.443 240.78 85.2315 247.737 73.6002 241.316C62.3136 235.089 57.9976 214.669 63.4119 187.37C67.9868 164.305 79.4675 135.994 96.0785 108.412L96.0838 108.413Z" stroke="#33373E" stroke-width="11.2354"/>
<path fill-rule="evenodd" clip-rule="evenodd" d="M96.1148 156.425C79.6128 129.14 68.3776 101.518 63.6878 78.5943C58.0426 50.9741 62.0339 29.8563 73.4017 23.557C85.2477 16.9918 107.66 24.6075 131.175 44.5952C148.953 59.7067 167.209 82.4382 182.875 108.343C198.936 134.902 210.974 161.809 215.657 184.454C221.583 213.11 216.786 235.006 205.166 241.445C193.891 247.694 173.258 241.078 151.256 222.954C132.668 207.641 112.779 183.98 96.1148 156.424V156.425Z" stroke="#33373E" stroke-width="11.2354"/>
</g>
<defs>
<clipPath id="clip0_229901_32">
<rect width="263" height="263" fill="white"/>
</clipPath>
</defs>
</svg>
